<?xml version="1.0" encoding="utf-8"?>
<!-- Generator: Adobe Illustrator 17.0.2, SVG Export Plug-In . SVG Version: 6.00 Build 0)  -->
<!DOCTYPE svg PUBLIC "-//W3C//DTD SVG 1.1//EN" "http://www.w3.org/Graphics/SVG/1.1/DTD/svg11.dtd">
<svg version="1.1" id="Layer_1" xmlns="http://www.w3.org/2000/svg" xmlns:xlink="http://www.w3.org/1999/xlink" x="0px" y="0px"
	 width="24px" height="72px" viewBox="0 0 24 72" style="enable-background:new 0 0 24 72;" xml:space="preserve">
<style type="text/css">
	.st0{fill:#BBBBBB;}
	.st1{fill:#E3B551;}
	.st2{fill:#7FB0DF;}
</style>
<path class="st0" d="M6.5,17.2c-2.8-3-2.7-7.6,0.2-10.5c1.2-1.2,2.6-1.9,4.2-2.1L10.8,2C8.6,2.3,6.6,3.2,4.9,4.9
	C1.1,8.7,1,15,4.8,18.9L2.7,21l6.7,0.4v-7.1L6.5,17.2z M14.6,2.6v7.1l2.8-2.8c2.8,3,2.7,7.6-0.2,10.5c-1.2,1.2-2.6,1.9-4.2,2.1
	l0.1,2.5c2.1-0.3,4.2-1.2,5.9-2.9c3.9-3.8,4-10.1,0.2-14L21.3,3L14.6,2.6z"/>
<path class="st1" d="M6.5,65.2c-2.8-3-2.7-7.6,0.2-10.5c1.2-1.2,2.6-1.9,4.2-2.1L10.8,50c-2.2,0.3-4.2,1.2-5.9,2.9
	C1.1,56.7,1,63,4.8,66.9L2.7,69l6.7,0.4v-7.1L6.5,65.2z M14.6,50.6v7.1l2.8-2.8c2.8,3,2.7,7.6-0.2,10.5c-1.2,1.2-2.6,1.9-4.2,2.1
	l0.1,2.5c2.1-0.3,4.2-1.2,5.9-2.9c3.9-3.8,4-10.1,0.2-14l2.1-2.1L14.6,50.6z"/>
<path class="st2" d="M6.5,41.2c-2.8-3-2.7-7.6,0.2-10.5c1.2-1.2,2.6-1.9,4.2-2.1L10.8,26c-2.1,0.3-4.2,1.2-5.8,2.9
	c-3.9,3.8-4,10.1-0.2,14L2.7,45l6.7,0.4v-7.1L6.5,41.2z M14.6,26.6v7.1l2.8-2.8c2.8,3,2.7,7.6-0.2,10.5c-1.2,1.2-2.6,1.9-4.2,2.1
	l0.1,2.5c2.1-0.3,4.2-1.2,5.9-2.9c3.8-3.9,3.9-10.1,0.1-14.1l2.1-2.1L14.6,26.6z"/>
</svg>
