<?xml version="1.0" encoding="utf-8"?>
<!-- Generator: Adobe Illustrator 17.0.2, SVG Export Plug-In . SVG Version: 6.00 Build 0)  -->
<!DOCTYPE svg PUBLIC "-//W3C//DTD SVG 1.1//EN" "http://www.w3.org/Graphics/SVG/1.1/DTD/svg11.dtd">
<svg version="1.1" id="Layer_1" xmlns="http://www.w3.org/2000/svg" xmlns:xlink="http://www.w3.org/1999/xlink" x="0px" y="0px"
	 width="24px" height="48px" viewBox="0 0 24 48" style="enable-background:new 0 0 24 48;" xml:space="preserve">
<style type="text/css">
	.st0{fill:#BBBBBB;}
	.st1{fill:#7FB0DF;}
</style>
<path class="st0" d="M6.5,17.2c-2.8-3-2.7-7.6,0.2-10.5c1.2-1.2,2.6-1.9,4.2-2.1L10.8,2C8.6,2.3,6.6,3.2,4.9,4.9
	C1.1,8.7,1,15,4.8,18.9l-2.1,2.1l6.7,0.4l0-7.1L6.5,17.2z M14.6,2.6l0,7.1l2.8-2.8c2.8,3,2.7,7.6-0.2,10.5c-1.2,1.2-2.6,1.9-4.2,2.1
	l0.1,2.5c2.1-0.3,4.2-1.2,5.9-2.9C22.9,15.3,23,9,19.2,5.1l2.1-2.1L14.6,2.6z"/>
<path class="st1" d="M6.5,41.2c-2.8-3-2.7-7.6,0.2-10.5c1.2-1.2,2.6-1.9,4.2-2.1L10.8,26c-2.1,0.3-4.2,1.2-5.8,2.9
	C1.1,32.7,1,39,4.8,42.9l-2.1,2.1l6.7,0.4l0-7.1L6.5,41.2z M14.6,26.6l0,7.1l2.8-2.8c2.8,3,2.7,7.6-0.2,10.5
	c-1.2,1.2-2.6,1.9-4.2,2.1l0.1,2.5c2.1-0.3,4.2-1.2,5.9-2.9c3.8-3.9,3.9-10.1,0.1-14.1l2.1-2.1L14.6,26.6z"/>
</svg>
